<?xml version="1.0" encoding="UTF-8" standalone="no"?>
<!-- Created with Inkscape (http://www.inkscape.org/) -->

<svg
   xmlns:dc="http://purl.org/dc/elements/1.1/"
   xmlns:cc="http://creativecommons.org/ns#"
   xmlns:rdf="http://www.w3.org/1999/02/22-rdf-syntax-ns#"
   xmlns:svg="http://www.w3.org/2000/svg"
   xmlns="http://www.w3.org/2000/svg"
   xmlns:sodipodi="http://sodipodi.sourceforge.net/DTD/sodipodi-0.dtd"
   xmlns:inkscape="http://www.inkscape.org/namespaces/inkscape"
   width="4.00001in"
   height="5.00001in"
   viewBox="0 0 19.352431 3.4227343"
   version="1.1"
   id="svg8"
   inkscape:version="0.92.3 (2405546, 2018-03-11)"
   sodipodi:docname="fjm2.svg">
  <defs
     id="defs2">
    <inkscape:path-effect
       effect="bspline"
       id="path-effect7143"
       is_visible="true"
       weight="33.333333"
       steps="2"
       helper_size="0"
       apply_no_weight="true"
       apply_with_weight="true"
       only_selected="false" />
    <inkscape:path-effect
       effect="bspline"
       id="path-effect6974"
       is_visible="true"
       weight="33.333333"
       steps="2"
       helper_size="0"
       apply_no_weight="true"
       apply_with_weight="true"
       only_selected="false" />
    <inkscape:perspective
       sodipodi:type="inkscape:persp3d"
       inkscape:vp_x="0 : 0.56625788 : 1"
       inkscape:vp_y="0 : 3.8131846 : 0"
       inkscape:vp_z="39.999204 : 0.56625788 : 1"
       inkscape:persp3d-origin="19.999604 : 0.37750529 : 1"
       id="perspective40" />
    <filter
       inkscape:label="Age"
       inkscape:menu="Image Effects"
       inkscape:menu-tooltip="Imitate aged photograph"
       style="color-interpolation-filters:sRGB"
       id="filter324">
      <feColorMatrix
         type="saturate"
         in="SourceGraphic"
         values="0"
         id="feColorMatrix312" />
      <feColorMatrix
         values="3 0 0 0 -0.3 0 3 0 0 -0.3 0 0 3 0 -0.3 0 0 0 1 0"
         result="result0"
         id="feColorMatrix314" />
      <feTurbulence
         baseFrequency="0.111"
         numOctaves="2"
         type="fractalNoise"
         id="feTurbulence316" />
      <feColorMatrix
         values="0 0 0 0 0 0 0 0 0 0 0 0 0 0 0 0 0 0 255 -200"
         id="feColorMatrix318" />
      <feGaussianBlur
         stdDeviation="1"
         id="feGaussianBlur320" />
      <feComposite
         in2="result0"
         operator="atop"
         id="feComposite322" />
    </filter>
    <filter
       inkscape:label="Age"
       inkscape:menu="Image Effects"
       inkscape:menu-tooltip="Imitate aged photograph"
       style="color-interpolation-filters:sRGB"
       id="filter324-2">
      <feColorMatrix
         type="saturate"
         in="SourceGraphic"
         values="0"
         id="feColorMatrix312-9" />
      <feColorMatrix
         values="3 0 0 0 -0.3 0 3 0 0 -0.3 0 0 3 0 -0.3 0 0 0 1 0"
         result="result0"
         id="feColorMatrix314-1" />
      <feTurbulence
         baseFrequency="0.111"
         numOctaves="2"
         type="fractalNoise"
         id="feTurbulence316-2" />
      <feColorMatrix
         values="0 0 0 0 0 0 0 0 0 0 0 0 0 0 0 0 0 0 255 -200"
         id="feColorMatrix318-7" />
      <feGaussianBlur
         stdDeviation="1"
         id="feGaussianBlur320-0" />
      <feComposite
         in2="result0"
         operator="atop"
         id="feComposite322-9" />
    </filter>
    <inkscape:path-effect
       effect="bspline"
       id="path-effect6974-6"
       is_visible="true"
       weight="33.333333"
       steps="2"
       helper_size="0"
       apply_no_weight="true"
       apply_with_weight="true"
       only_selected="false" />
    <inkscape:path-effect
       effect="bspline"
       id="path-effect6974-8"
       is_visible="true"
       weight="33.333333"
       steps="2"
       helper_size="0"
       apply_no_weight="true"
       apply_with_weight="true"
       only_selected="false" />
    <inkscape:path-effect
       effect="bspline"
       id="path-effect7143-6"
       is_visible="true"
       weight="33.333333"
       steps="2"
       helper_size="0"
       apply_no_weight="true"
       apply_with_weight="true"
       only_selected="false" />
    <inkscape:path-effect
       effect="bspline"
       id="path-effect7143-6-2"
       is_visible="true"
       weight="33.333333"
       steps="2"
       helper_size="0"
       apply_no_weight="true"
       apply_with_weight="true"
       only_selected="false" />
  </defs>
  <sodipodi:namedview
     id="base"
     pagecolor="#ffffff"
     bordercolor="#666666"
     borderopacity="1.0"
     inkscape:pageopacity="0.0"
     inkscape:pageshadow="2"
     inkscape:zoom="0.84"
     inkscape:cx="141.6086"
     inkscape:cy="273.01972"
     inkscape:document-units="mm"
     inkscape:current-layer="layer1"
     showgrid="false"
     inkscape:measure-start="1068.95,157.946"
     inkscape:measure-end="414.896,460.368"
     inkscape:window-width="1366"
     inkscape:window-height="713"
     inkscape:window-x="0"
     inkscape:window-y="27"
     inkscape:window-maximized="1"
     showguides="true"
     inkscape:object-paths="true"
     inkscape:snap-nodes="false"
     viewbox-width="70"
     inkscape:pagecheckerboard="false"
     viewbox-height="8"
     units="in"
     fit-margin-top="0"
     fit-margin-left="0"
     fit-margin-right="0"
     fit-margin-bottom="0"
     scale-x="1e-05" />
  <metadata
     id="metadata5">
    <rdf:RDF>
      <cc:Work
         rdf:about="">
        <dc:format>image/svg+xml</dc:format>
        <dc:type
           rdf:resource="http://purl.org/dc/dcmitype/StillImage" />
        <dc:title></dc:title>
      </cc:Work>
    </rdf:RDF>
  </metadata>
  <g
     inkscape:label="Capa 1"
     inkscape:groupmode="layer"
     id="layer1"
     transform="translate(-1.2914088,-25.063365)">
    <path
       style="fill:#0031ff;fill-opacity:1;stroke:#000000;stroke-width:0.20866646;stroke-linecap:butt;stroke-linejoin:miter;stroke-miterlimit:4;stroke-dasharray:none;stroke-opacity:1"
       d="m 11.61798,23.343344 c 0.479763,-0.711722 0.959513,-1.423426 1.246872,-2.142335 0.287358,-0.718909 0.382339,-1.445063 0.311789,-1.459892 -0.07055,-0.01483 -0.306632,0.681656 -0.438785,0.674025 -0.132154,-0.0076 -0.160373,-0.719303 -0.61379,-1.395811 -0.453417,-0.676507 -1.332051,-1.317846 -2.4668752,-1.426652 -1.1348244,-0.108806 -2.5257793,0.314923 -2.6720446,0.49474 -0.1462652,0.179816 0.9521807,0.115698 1.0809708,0.215713 0.1287901,0.100015 -0.7121261,0.364172 -1.4640036,1.029847 -0.7518775,0.665675 -1.4146023,1.732766 -1.9748246,2.216045 -0.5602224,0.483279 -1.0178503,0.382615 -1.4776059,-0.03529 -0.4597555,-0.417906 -0.9215853,-1.152992 -1.0133025,-1.004724 -0.091717,0.148269 0.1866962,1.179929 0.6010587,1.925587 0.4143626,0.745658 0.9646573,1.205294 0.9785641,1.351682 0.013907,0.146388 -0.5085728,-0.02048 -0.4874101,0.06849 0.021163,0.08896 0.5859706,0.433748 1.2223004,0.584946 0.6363298,0.151197 1.3441698,0.108798 2.0519834,0.0664"
       id="path7141"
       inkscape:connector-curvature="0"
       inkscape:path-effect="#path-effect7143"
       inkscape:original-d="m 11.61798,23.343344 c 0.479766,-0.71172 0.959516,-1.423424 1.439253,-2.135115 0.09499,-0.726127 0.189976,-1.452281 0.284935,-2.178412 -0.236065,0.696475 -0.472148,1.39296 -0.708244,2.089451 -0.02821,-0.711758 -0.05643,-1.423429 -0.08466,-2.135119 C 11.670666,18.3428 10.792033,17.70146 9.9133628,17.060132 8.5223624,17.48386 7.1314075,17.907589 5.74037,18.331357 6.8388799,18.267217 7.9373265,18.203111 9.0357951,18.138998 8.1949031,18.403134 7.3539867,18.667291 6.5130107,18.931482 5.8502408,19.998657 5.1875169,21.065749 4.5247043,22.132969 4.0670723,22.032276 3.6094439,21.931614 3.1517939,21.830971 2.6899521,21.095811 2.2281224,20.360725 1.7662537,19.625632 c 0.2784341,1.031639 0.5568479,2.063299 0.8352382,3.094973 0.5503239,0.459632 1.1006188,0.919268 1.650906,1.378927 -0.5224829,-0.166881 -1.0449594,-0.333754 -1.5674925,-0.500606 0.5648654,0.344784 1.1296736,0.689566 1.694485,1.034385 0.7078316,-0.04242 1.4156716,-0.08482 2.1234865,-0.127195"
       sodipodi:nodetypes="ccccccccccccccccc" />
    <path
       style="fill:#ffff00;fill-opacity:1;fill-rule:nonzero;stroke:#000000;stroke-width:0.0661735;stroke-linecap:butt;stroke-linejoin:miter;stroke-miterlimit:4;stroke-dasharray:none;stroke-opacity:1"
       d="m 10.22833,22.166948 c 0.141172,-0.243249 0.28234,-0.48649 0.366899,-0.732197 0.08456,-0.245707 0.112508,-0.493883 0.09175,-0.498952 -0.02076,-0.0051 -0.09023,0.232972 -0.129112,0.230365 -0.03889,-0.0026 -0.04719,-0.245841 -0.180609,-0.477054 -0.13342,-0.231214 -0.3919618,-0.450407 -0.7258853,-0.487595 -0.3339236,-0.03719 -0.7432259,0.107634 -0.7862647,0.16909 -0.043039,0.06146 0.2801831,0.03954 0.3180796,0.07372 0.037896,0.03418 -0.2095479,0.124465 -0.4307901,0.351975 C 8.5311543,21.02381 8.3361431,21.388516 8.1712924,21.553688 8.0064417,21.718861 7.8717836,21.68446 7.7365007,21.541633 7.6012179,21.398805 7.4653216,21.147571 7.4383331,21.198244 c -0.026989,0.05067 0.054936,0.40327 0.1768603,0.658113 0.1219244,0.254844 0.2838594,0.411943 0.28795,0.461977 0.00409,0.05003 -0.1496511,-0.007 -0.1434227,0.02342 0.00623,0.03041 0.1724242,0.148244 0.3596693,0.19992 0.1872452,0.05168 0.3955294,0.03719 0.6038063,0.0227"
       id="path7141-1-9"
       inkscape:connector-curvature="0"
       inkscape:path-effect="#path-effect7143-6-2"
       inkscape:original-d="m 10.22833,22.166948 c 0.141174,-0.243248 0.282342,-0.486489 0.423507,-0.729729 0.02795,-0.248175 0.05589,-0.496352 0.08385,-0.744526 -0.06947,0.238037 -0.138931,0.476079 -0.208404,0.714122 -0.0082,-0.243261 -0.0166,-0.486492 -0.02491,-0.729731 C 10.243843,20.457889 9.9853009,20.238696 9.7267481,20.019505 9.3174387,20.1643 8.908144,20.309144 8.4988248,20.453978 8.8220668,20.432038 9.1452903,20.410148 9.4685197,20.388228 9.221083,20.478508 8.9736394,20.568793 8.7261782,20.65908 8.5311564,21.023811 8.336145,21.388517 8.1411095,21.753264 8.0064485,21.718834 7.8717902,21.684434 7.7371247,21.650059 7.6012258,21.398801 7.4653289,21.147567 7.3294222,20.896331 c 0.081929,0.352585 0.1638546,0.705181 0.2457722,1.057782 0.161937,0.157074 0.3238628,0.314183 0.4857874,0.471281 -0.1537429,-0.05704 -0.3074842,-0.114065 -0.461242,-0.171079 0.1662131,0.11784 0.3324115,0.235672 0.4986109,0.353524 0.2082831,-0.01451 0.4165673,-0.029 0.6248456,-0.04347"
       sodipodi:nodetypes="ccccccccccccccccc" />
    <path
       style="fill:#ff0000;fill-opacity:1;stroke:#000000;stroke-width:0.20344788;stroke-linecap:butt;stroke-linejoin:miter;stroke-miterlimit:4;stroke-dasharray:none;stroke-opacity:1"
       d="m 10.981782,22.916051 c 0.292843,-0.398483 0.585679,-0.796956 0.761079,-1.199462 0.1754,-0.402505 0.233376,-0.809067 0.190313,-0.817371 -0.04306,-0.0083 -0.187167,0.381652 -0.267832,0.377379 -0.08067,-0.0043 -0.09789,-0.402726 -0.374652,-0.781492 -0.27676,-0.378765 -0.813069,-0.737841 -1.5057549,-0.79876 -0.6926857,-0.06092 -1.5417113,0.17632 -1.6309901,0.276996 -0.089279,0.100676 0.5812014,0.06478 0.6598131,0.120773 0.078612,0.056 -0.4346735,0.203894 -0.8936131,0.576598 -0.4589396,0.372703 -0.8634588,0.970151 -1.2054118,1.240736 -0.341953,0.270584 -0.6212857,0.214229 -0.9019159,-0.01975 -0.2806301,-0.233976 -0.5625271,-0.645539 -0.6185107,-0.562527 -0.055984,0.08301 0.1139574,0.660623 0.3668815,1.078105 0.2529242,0.417481 0.588818,0.674824 0.5973065,0.756784 0.00849,0.08196 -0.3104335,-0.01147 -0.2975158,0.03835 0.012918,0.04981 0.3576759,0.242851 0.746084,0.327501 0.388408,0.08465 0.820468,0.06091 1.2525103,0.03716"
       id="path7141-1"
       inkscape:connector-curvature="0"
       inkscape:path-effect="#path-effect7143-6"
       inkscape:original-d="m 10.981782,22.916051 c 0.292845,-0.398482 0.58568,-0.796955 0.878506,-1.195418 0.05798,-0.406548 0.115958,-0.81311 0.173922,-1.219659 -0.144093,0.389943 -0.288194,0.779899 -0.432306,1.169849 -0.01722,-0.398499 -0.03444,-0.796953 -0.05168,-1.195416 C 11.013941,20.116324 10.47763,19.75725 9.9413,19.398179 9.0922467,19.635416 8.2432213,19.872656 7.3941466,20.109919 8.0646656,20.074008 8.7351469,20.038127 9.4056411,20.002217 8.8923684,20.150106 8.3790819,20.297999 7.8657578,20.445918 7.461211,21.043419 7.0566901,21.640866 6.6521159,22.238387 6.3727818,22.182024 6.0934506,22.125662 5.8141052,22.069321 5.532201,21.657717 5.2503046,21.246153 4.9683843,20.834586 c 0.1699558,0.577597 0.3398953,1.155207 0.5098212,1.732823 0.3359125,0.257345 0.6718075,0.514686 1.0076976,0.77204 -0.3189184,-0.09343 -0.6378325,-0.186882 -0.9567823,-0.28028 0.3447879,0.193029 0.6895418,0.386078 1.0342971,0.579136 0.4320531,-0.02374 0.8641122,-0.0475 1.2961552,-0.07123"
       sodipodi:nodetypes="ccccccccccccccccc" />
    <ellipse
       style="opacity:1;fill:#666666;fill-opacity:1;stroke:#000000;stroke-width:0.39620596;stroke-miterlimit:4;stroke-dasharray:none;stroke-opacity:1;paint-order:stroke markers fill"
       id="path7133"
       cx="9.3089275"
       cy="22.323666"
       rx="1.2005219"
       ry="0.88626516" />
    <ellipse
       style="opacity:1;fill:#666666;stroke:#000000;stroke-width:0.52517951;stroke-miterlimit:4;stroke-dasharray:none;stroke-opacity:1;paint-order:stroke markers fill"
       id="path158"
       cx="9.282095"
       cy="25.991957"
       rx="3.3497272"
       ry="3.7498338" />
    <path
       style="fill:#000000;stroke:#000000;stroke-width:0.01106879px;stroke-linecap:butt;stroke-linejoin:miter;stroke-opacity:1"
       d="m 6.6526442,27.438593 -0.2608539,-0.74726 c 1.9455345,0.628155 3.8910697,0.839145 5.8366057,0.05975 l -0.293461,0.717374 -2.6378014,0.919889 z"
       id="path178"
       inkscape:connector-curvature="0"
       sodipodi:nodetypes="cccccc" />
    <path
       style="fill:none;stroke:#000000;stroke-width:0.20633641;stroke-linecap:butt;stroke-linejoin:miter;stroke-miterlimit:4;stroke-dasharray:none;stroke-opacity:1"
       d="m 6.8953828,23.15311 c 0.5178311,0.01392 1.0356557,0.02785 1.3801063,0.713883 0.3444506,0.686035 0.5155089,2.044014 0.6865799,3.402095"
       id="path6972"
       inkscape:connector-curvature="0"
       inkscape:path-effect="#path-effect6974"
       inkscape:original-d="m 6.8953828,23.15311 c 0.5178315,0.01391 1.035657,0.0278 1.5534773,0.04177 0.1711381,1.358141 0.3421971,2.71612 0.5132089,4.074208"
       sodipodi:nodetypes="ccc" />
    <path
       style="fill:none;stroke:#000000;stroke-width:0.2093645;stroke-linecap:butt;stroke-linejoin:miter;stroke-miterlimit:4;stroke-dasharray:none;stroke-opacity:1"
       d="m 11.773806,23.261875 c -0.437065,-0.02281 -0.874116,-0.04562 -1.218285,0.672864 -0.344169,0.718485 -0.5954809,2.178353 -0.8467872,3.63819"
       id="path6972-7"
       inkscape:connector-curvature="0"
       inkscape:path-effect="#path-effect6974-8"
       inkscape:original-d="m 11.773806,23.261875 c -0.437064,-0.02283 -0.874116,-0.04563 -1.311158,-0.06843 -0.251308,1.459777 -0.5026202,2.919645 -0.7539142,4.379484" />
    <ellipse
       style="opacity:1;fill:#000000;fill-opacity:1;stroke:none;stroke-width:0.20633641;stroke-miterlimit:4;stroke-dasharray:none;stroke-opacity:1;paint-order:stroke markers fill"
       id="path7034"
       cx="7.1260338"
       cy="23.441513"
       rx="0.12233397"
       ry="0.12466197" />
    <ellipse
       style="opacity:1;fill:#000000;fill-opacity:1;stroke:none;stroke-width:0.20633641;stroke-miterlimit:4;stroke-dasharray:none;stroke-opacity:1;paint-order:stroke markers fill"
       id="path7034-2"
       cx="7.9317231"
       cy="24.077854"
       rx="0.12233401"
       ry="0.12466197" />
    <ellipse
       style="opacity:1;fill:#000000;fill-opacity:1;stroke:none;stroke-width:0.20633641;stroke-miterlimit:4;stroke-dasharray:none;stroke-opacity:1;paint-order:stroke markers fill"
       id="path7034-0"
       cx="8.4346085"
       cy="26.2332"
       rx="0.12233401"
       ry="0.12466197" />
    <ellipse
       style="opacity:1;fill:#000000;fill-opacity:1;stroke:none;stroke-width:0.20633641;stroke-miterlimit:4;stroke-dasharray:none;stroke-opacity:1;paint-order:stroke markers fill"
       id="path7034-23"
       cx="8.2434349"
       cy="25.272161"
       rx="0.12233401"
       ry="0.12466197" />
    <ellipse
       style="opacity:1;fill:#000000;fill-opacity:1;stroke:none;stroke-width:0.20633641;stroke-miterlimit:4;stroke-dasharray:none;stroke-opacity:1;paint-order:stroke markers fill"
       id="path7034-7"
       cx="10.389819"
       cy="26.254194"
       rx="0.12233401"
       ry="0.12466197" />
    <ellipse
       style="opacity:1;fill:#000000;fill-opacity:1;stroke:none;stroke-width:0.20633641;stroke-miterlimit:4;stroke-dasharray:none;stroke-opacity:1;paint-order:stroke markers fill"
       id="path7034-28"
       cx="10.951146"
       cy="24.189487"
       rx="0.12233401"
       ry="0.12466197" />
    <ellipse
       style="opacity:1;fill:#000000;fill-opacity:1;stroke:none;stroke-width:0.20633641;stroke-miterlimit:4;stroke-dasharray:none;stroke-opacity:1;paint-order:stroke markers fill"
       id="path7034-97"
       cx="11.643727"
       cy="23.559305"
       rx="0.12233401"
       ry="0.12466197" />
    <ellipse
       style="opacity:1;fill:#000000;fill-opacity:1;stroke:none;stroke-width:0.20633641;stroke-miterlimit:4;stroke-dasharray:none;stroke-opacity:1;paint-order:stroke markers fill"
       id="path7034-3"
       cx="10.541856"
       cy="25.35224"
       rx="0.12233401"
       ry="0.12466197" />
    <path
       style="opacity:1;fill:#0031ff;fill-opacity:1;fill-rule:nonzero;stroke:none;stroke-width:0.17449278;stroke-miterlimit:4;stroke-dasharray:none;stroke-opacity:1;paint-order:stroke markers fill"
       id="path1027"
       d="m 5.6182752,33.181084 c 0.013737,0.167697 0.02593,0.335521 0.034648,0.503633 0.00648,0.260085 0.00673,0.520207 0.00639,0.780346 0.00113,0.253748 7.638e-4,0.507513 0.0036,0.761255 0.00185,0.09533 0.00233,0.190222 -0.0021,0.28544 0,0 -0.7106659,0.330132 -0.7106659,0.330132 v 0 c 0.010298,-0.09454 0.012763,-0.188745 0.011169,-0.283843 0.00316,-0.254822 0.00328,-0.509679 0.00374,-0.764516 -0.00153,-0.257751 -0.00178,-0.515688 -0.013841,-0.773227 -0.0078,-0.166689 -0.018374,-0.334105 -0.054707,-0.497913 0,0 0.7217695,-0.341307 0.7217691,-0.341307 z"
       inkscape:connector-curvature="0" />
    <path
       style="opacity:1;fill:#ff0000;fill-opacity:1;fill-rule:nonzero;stroke:none;stroke-width:0.17449278;stroke-miterlimit:4;stroke-dasharray:none;stroke-opacity:1;paint-order:stroke markers fill"
       id="path1029"
       d="m 5.7814116,33.303079 c 0.1692947,0.0046 0.3386868,0.0046 0.5080418,0.0056 0.2202701,0.0014 0.4396505,0.02634 0.6595806,0.03849 0.1953946,0.0095 0.3910635,0.0099 0.586656,0.01095 0.1124664,-1.33e-4 0.056956,-0.0028 0.166555,0.0078 0,0 -0.649499,0.43023 -0.649499,0.43023 v 0 c -0.1045281,-0.0056 -0.05092,-0.0039 -0.1608287,-0.0049 -0.1949496,-0.0017 -0.3899256,-0.0057 -0.5845513,-0.01692 -0.2188898,-0.01243 -0.4371623,-0.03836 -0.6568056,-0.03491 -0.1748416,5.99e-4 -0.3497148,0.001 -0.524502,0.0056 0,0 0.655353,-0.44189 0.655353,-0.44189 z"
       inkscape:connector-curvature="0" />
    <path
       style="opacity:1;fill:#ff0000;fill-opacity:1;fill-rule:nonzero;stroke:none;stroke-width:0.17449278;stroke-miterlimit:4;stroke-dasharray:none;stroke-opacity:1;paint-order:stroke markers fill"
       id="path1031"
       d="m 6.1088266,34.113377 c 0.1902408,0.0063 0.3806999,0.005 0.5710423,0.0063 0.213653,0.0019 0.4262016,0.0027 0.6386584,-0.01905 0,0 -0.6376907,0.438572 -0.6376907,0.438572 v 0 c -0.2123615,0.01563 -0.4249165,0.01021 -0.6377973,0.0099 -0.1965192,0.001 -0.3931378,1.99e-4 -0.5895652,0.0063 0,0 0.6553525,-0.441888 0.6553525,-0.441888 z"
       inkscape:connector-curvature="0" />
    <path
       style="opacity:1;fill:#0029ff;fill-opacity:1;fill-rule:nonzero;stroke:none;stroke-width:0.17449278;stroke-miterlimit:4;stroke-dasharray:none;stroke-opacity:1;paint-order:stroke markers fill"
       id="path1033"
       d="m 8.5642559,33.542005 c -0.024395,0.168489 -0.041343,0.337458 -0.050521,0.50724 -7.19e-4,0.164333 -0.012985,0.327025 -0.032226,0.490226 -0.019218,0.15309 -0.02608,0.307177 -0.029257,0.461179 -0.00147,0.12268 -3.643e-4,0.245339 2.628e-4,0.368001 7.74e-5,0.01755 1.682e-4,0.03509 2.426e-4,0.05264 0,0 -0.7161276,0.338735 -0.7161276,0.338735 v 0 c 3.75e-5,-0.01755 7.7e-5,-0.03522 1.123e-4,-0.05284 4.454e-4,-0.123968 0.00135,-0.247953 0.00427,-0.371907 0.00369,-0.156109 0.00827,-0.312289 0.026732,-0.467622 0.020393,-0.162236 0.037898,-0.32404 0.037428,-0.487688 0.00984,-0.166024 0.021479,-0.33189 0.038838,-0.497378 0,0 0.7202595,-0.340587 0.7202595,-0.340587 z"
       inkscape:connector-curvature="0" />
    <path
       style="opacity:1;fill:#ff0000;fill-opacity:1;fill-rule:nonzero;stroke:none;stroke-width:0.17449278;stroke-miterlimit:4;stroke-dasharray:none;stroke-opacity:1;paint-order:stroke markers fill"
       id="path1035"
       d="m 8.9009404,33.518076 c 0.058736,0.12413 0.1438858,0.234952 0.2242571,0.347466 0.088653,0.114141 0.1601058,0.23795 0.2486371,0.352229 0.014194,0.01927 0.028349,0.03868 0.042528,0.05798 0,0 -0.6894095,0.375231 -0.6894095,0.375231 v 0 c -0.013471,-0.01884 -0.02695,-0.03774 -0.040437,-0.05657 C 8.5978311,34.479161 8.5233887,34.35582 8.4357716,34.23996 8.3554196,34.126027 8.2729677,34.013299 8.2013065,33.894376 c 0,0 0.699632,-0.376331 0.699632,-0.376331 z"
       inkscape:connector-curvature="0" />
    <path
       style="opacity:1;fill:#ff0000;fill-opacity:1;fill-rule:nonzero;stroke:none;stroke-width:0.17449278;stroke-miterlimit:4;stroke-dasharray:none;stroke-opacity:1;paint-order:stroke markers fill"
       id="path1037"
       d="m 10.617696,33.61366 c -0.149621,0.133456 -0.292469,0.273042 -0.450456,0.398093 0,0 -0.732578,0.273746 -0.732578,0.273746 v 0 c 0.1588307,-0.115827 0.2992742,-0.249262 0.4378801,-0.385388 0,0 0.7451539,-0.286451 0.7451539,-0.286451 z"
       inkscape:connector-curvature="0" />
    <path
       style="opacity:1;fill:#1300ff;fill-opacity:1;fill-rule:nonzero;stroke:none;stroke-width:0.17449278;stroke-miterlimit:4;stroke-dasharray:none;stroke-opacity:1;paint-order:stroke markers fill"
       id="path1039"
       d="m 9.7008426,34.191329 c 0.2882102,-0.112024 0.9322784,-0.471609 -0.2355988,0.149363 0.054015,-0.02812 0.1056952,-0.05989 0.159222,-0.08878 2.5093592,-1.354415 -0.4349167,0.226208 0.2193253,-0.123125 0.2504759,-0.133753 0.5017579,-0.266186 0.7526379,-0.399278 0.164328,-0.0537 0.203236,-0.01821 0.243455,0.133945 0.0209,0.155296 0.01394,0.312565 0.01158,0.468691 -0.0016,0.21634 -0.02943,0.431497 -0.04301,0.647367 -7.19e-4,0.167716 -0.0411,0.331896 -0.07421,0.495911 0,0 -0.715632,0.322128 -0.715632,0.322128 v 0 c 0.03672,-0.161892 0.08646,-0.323547 0.08657,-0.490135 0.01275,-0.214036 0.03794,-0.427622 0.04065,-0.641888 -0.0011,-0.149392 0.0023,-0.299492 -0.01485,-0.448239 -0.02431,-0.113059 -0.05231,-0.06113 -0.1565775,-0.02392 0.2041445,-0.110173 0.4082475,-0.220463 0.6124335,-0.330593 0.02461,-0.01332 -0.04913,0.02667 -0.07371,0.04002 -0.251668,0.13661 -0.50558,0.269686 -0.7550101,0.409767 -0.2002845,0.112482 0.4044411,-0.218931 0.6075551,-0.326955 0.05433,-0.02889 -0.21767,0.124754 -0.160837,0.0901 -0.374576,0.201531 -0.73996,0.423555 -1.1402522,0.579979 0,0 0.6362512,-0.464333 0.6362512,-0.464333 z"
       inkscape:connector-curvature="0" />
    <path
       style="opacity:1;fill:#0031ff;fill-opacity:1;fill-rule:nonzero;stroke:none;stroke-width:0.17449278;stroke-miterlimit:4;stroke-dasharray:none;stroke-opacity:1;paint-order:stroke markers fill"
       id="path1041"
       d="m 12.384284,33.201792 c 0.153926,0.0036 0.307948,0.0043 0.461922,0.0045 0.185396,3.2e-5 0.37079,-1.94e-4 0.556185,-8.27e-4 0.111483,-6.4e-5 0.222962,-1.9e-5 0.334444,-2.06e-4 0,0 -0.645131,0.435 -0.645131,0.435 v 0 c -0.111198,-2.07e-4 -0.222393,-1.96e-4 -0.33359,-2.07e-4 -0.184555,-5.96e-4 -0.369116,-8.27e-4 -0.553673,-8.27e-4 -0.158506,1.94e-4 -0.317051,10e-4 -0.475511,0.0045 0,0 0.655354,-0.441887 0.655354,-0.441887 z"
       inkscape:connector-curvature="0" />
    <path
       style="opacity:1;fill:#ff0000;fill-opacity:1;fill-rule:nonzero;stroke:none;stroke-width:0.17449278;stroke-miterlimit:4;stroke-dasharray:none;stroke-opacity:1;paint-order:stroke markers fill"
       id="path1047"
       d="m 12.436379,33.491627 c -0.02204,0.132479 -0.06089,0.260366 -0.102513,0.388489 -0.04382,0.134657 -0.05444,0.275173 -0.06061,0.414879 -0.0023,0.159236 -0.0032,0.31755 -0.01961,0.476147 -0.01023,0.145136 -0.03668,0.290982 -0.02676,0.436671 0,0 -0.713272,0.342965 -0.713272,0.342965 v 0 c -0.01169,-0.150582 0.01833,-0.301375 0.02981,-0.451378 0.01491,-0.156774 0.01831,-0.313169 0.01732,-0.470593 0.0053,-0.144692 0.01137,-0.290294 0.05045,-0.431279 0.0403,-0.124679 0.09295,-0.245921 0.09645,-0.377956 0,0 0.728737,-0.327945 0.728737,-0.327945 z"
       inkscape:connector-curvature="0" />
    <path
       style="opacity:1;fill:#ff0000;fill-opacity:1;fill-rule:nonzero;stroke:none;stroke-width:0.17449278;stroke-miterlimit:4;stroke-dasharray:none;stroke-opacity:1;paint-order:stroke markers fill"
       id="path1049"
       d="m 12.493423,35.278183 c 0.168238,0.0056 0.3367,0.0045 0.505031,0.004 0.172858,-2.03e-4 0.345719,-1.96e-4 0.518575,-5.95e-4 0.157404,-1.94e-4 0.314814,5.95e-4 0.47221,-0.0011 0.02159,-7e-6 0.04318,0 0.06476,0 0,0 -0.648612,0.437345 -0.648612,0.437345 v 0 c -0.02157,-8e-6 -0.04312,-1.8e-5 -0.06468,0 -0.156205,-0.0021 -0.312425,-10e-4 -0.468637,-0.0011 -0.172244,-4.12e-4 -0.344492,-4.12e-4 -0.516736,-5.98e-4 -0.172415,-4.1e-4 -0.344939,-0.0014 -0.517269,0.004 0,0 0.655354,-0.441889 0.655354,-0.441889 z"
       inkscape:connector-curvature="0" />
    <path
       style="opacity:1;fill:#0008ff;fill-opacity:1;fill-rule:nonzero;stroke:none;stroke-width:0.17449278;stroke-miterlimit:4;stroke-dasharray:none;stroke-opacity:1;paint-order:stroke markers fill"
       id="path1051"
       d="m 12.990387,34.316413 c 0.161829,-4.08e-4 0.321882,0.02361 0.482845,0.03681 0.158843,0.0014 0.305924,0.05983 0.459624,0.08944 0.07394,0.01273 0.148887,0.01733 0.223732,0.02235 0,0 -0.649543,0.430402 -0.649543,0.430402 v 0 c -0.0776,-0.0067 -0.155176,-0.01406 -0.23141,-0.02987 -0.149022,-0.03351 -0.294599,-0.08247 -0.449935,-0.08393 -0.162725,-0.01406 -0.325461,-0.03497 -0.489295,-0.0242 0,0 0.653982,-0.440963 0.653982,-0.440963 z"
       inkscape:connector-curvature="0" />
    <path
       style="opacity:1;fill:#0100ff;fill-opacity:1;fill-rule:nonzero;stroke:none;stroke-width:0.17449278;stroke-miterlimit:4;stroke-dasharray:none;stroke-opacity:1;paint-order:stroke markers fill"
       id="path1053"
       d="m 13.960744,34.73962 c -0.06213,0.127463 -0.07996,0.267305 -0.09488,0.405028 -0.01062,0.156323 -0.03711,0.311096 -0.05241,0.467047 -0.01283,0.15125 -0.01387,0.303002 -0.01567,0.454621 -3.44e-4,0.09339 9.44e-4,0.186731 7.2e-4,0.280127 0,0 -0.712215,0.336853 -0.712215,0.336853 v 0 c -4.25e-4,-0.09389 6.29e-4,-0.187738 0.0011,-0.281604 3.44e-4,-0.153307 0.0019,-0.306787 0.01323,-0.459785 0.01256,-0.156516 0.04093,-0.311134 0.05268,-0.46756 0.01137,-0.141302 0.02826,-0.283284 0.07275,-0.419404 0,0 0.734644,-0.315323 0.734644,-0.315323 z"
       inkscape:connector-curvature="0" />
    <flowRoot
       xml:space="preserve"
       id="flowRoot2737"
       style="font-style:normal;font-weight:normal;font-size:40px;line-height:1.25;font-family:sans-serif;letter-spacing:0px;word-spacing:0px;fill:#000000;fill-opacity:1;stroke:none"><flowRegion
         id="flowRegion2739"><rect
           id="rect2741"
           width="144.44444"
           height="102.77778"
           x="1447.2222"
           y="483.6308" /></flowRegion><flowPara
         id="flowPara2743" /></flowRoot>    <g
       id="g2226"
       style="fill:#5b5b5b;fill-opacity:1;stroke:#000000;stroke-width:1.47234952;stroke-miterlimit:4;stroke-dasharray:none;stroke-opacity:1"
       transform="matrix(0.19017977,-7.7327132e-4,0.00277761,0.1880699,-14.438843,15.752301)">
      <g
         style="fill:#5b5b5b;fill-opacity:1;stroke:#000000;stroke-width:6.25662756;stroke-miterlimit:4;stroke-dasharray:none;stroke-opacity:1"
         transform="matrix(0.22805829,0,0,0.24282609,159.55256,22.036489)"
         clip-path="none"
         id="g146">
        <g
           style="fill:#5b5b5b;fill-opacity:1;stroke:#000000;stroke-width:6.55722761;stroke-miterlimit:4;stroke-dasharray:none;stroke-opacity:1"
           id="g144"
           inkscape:label="Clip"
           transform="matrix(0.93639566,0,0,0.97225618,-7.0066486,-2.2418966)">
          <path
             sodipodi:nodetypes="ccscsssssccc"
             style="fill:#727272;fill-opacity:1;stroke:#000000;stroke-width:6.55722761;stroke-linecap:butt;stroke-linejoin:miter;stroke-miterlimit:4;stroke-dasharray:none;stroke-opacity:1"
             d="m -246.2611,170.13821 5.36328,61.46212 c 0,0 2.97368,17.96956 42.95545,42.0133 35.0176,21.05844 39.91,32.7261 39.91,32.7261 -0.0205,-0.0192 -1.8593,-0.0757 0.54527,-3.82578 2.97773,-4.644 19.50952,-20.20064 35.42645,-29.57032 5.48696,-3.22996 10.2275,-6.1346 14.32639,-8.76287 25.226853,-16.17588 26.148867,-21.88371 27.191439,-28.54069 2.793925,-17.83963 4.484912,-27.18148 5.811826,-36.89514 2.926609,-21.42422 3.091401,-30.0992 3.091401,-30.0992 -29.601086,11.73092 -36.469556,9.74731 -88.721816,28.04192 z"
             id="path141"
             inkscape:connector-curvature="0" />
        </g>
      </g>
    </g>
    <flowRoot
       xml:space="preserve"
       id="flowRoot2745"
       style="font-style:normal;font-weight:normal;font-size:40px;line-height:1.25;font-family:sans-serif;letter-spacing:0px;word-spacing:0px;fill:#000000;fill-opacity:1;stroke:none"><flowRegion
         id="flowRegion2747"><rect
           id="rect2749"
           width="350"
           height="255.55556"
           x="1208.3334"
           y="350.29745" /></flowRegion><flowPara
         id="flowPara2751" /></flowRoot>    <path
       style="fill:#000000;stroke:#000000;stroke-width:0.26458332px;stroke-linecap:butt;stroke-linejoin:miter;stroke-opacity:1;filter:url(#filter324)"
       d="m 53.921343,169.38035 v 56.80759 l 7.00368,14.00735 0.77819,-69.25857 z"
       id="path231"
       inkscape:connector-curvature="0"
       sodipodi:nodetypes="ccccc"
       transform="matrix(0.04342613,0,0,0.04710116,4.1823199,19.529624)" />
    <path
       style="fill:#000000;stroke:#000000;stroke-width:0.01305038px;stroke-linecap:butt;stroke-linejoin:miter;stroke-opacity:1"
       d="m 7.5618997,27.877959 v 3.102708 l 0.3119698,0.765052 0.034659,-3.782754 z"
       id="path231-3"
       inkscape:connector-curvature="0"
       sodipodi:nodetypes="ccccc" />
    <path
       style="fill:#000000;stroke:#000000;stroke-width:0.01370864px;stroke-linecap:butt;stroke-linejoin:miter;stroke-opacity:1"
       d="m 8.6112619,28.274551 v 3.430365 l 0.3113534,0.845851 c 0.011539,-1.394078 0.023059,-4.549927 0.034595,-4.182234 z"
       id="path231-5"
       inkscape:connector-curvature="0"
       sodipodi:nodetypes="ccccc" />
    <path
       style="fill:#000000;stroke:#000000;stroke-width:0.01267607px;stroke-linecap:butt;stroke-linejoin:miter;stroke-opacity:1"
       d="m 11.089621,27.95211 v 2.920456 l -0.312699,0.72011 -0.03475,-3.560555 z"
       id="path231-3-0"
       inkscape:connector-curvature="0"
       sodipodi:nodetypes="ccccc" />
    <path
       style="fill:#000000;stroke:#000000;stroke-width:0.01372281px;stroke-linecap:butt;stroke-linejoin:miter;stroke-opacity:1"
       d="m 10.048279,28.300592 v 3.438501 l -0.3112616,0.847852 -0.03458,-4.192144 z"
       id="path231-5-6"
       inkscape:connector-curvature="0"
       sodipodi:nodetypes="ccccc" />
    <path
       style="fill:#000000;stroke:#000000;stroke-width:0.26458332px;stroke-linecap:butt;stroke-linejoin:miter;stroke-opacity:1;filter:url(#filter324-2)"
       d="m 53.921343,169.38035 v 56.80759 l 7.00368,14.00735 0.77819,-69.25857 z"
       id="path231-36"
       inkscape:connector-curvature="0"
       sodipodi:nodetypes="ccccc"
       transform="matrix(-0.04335687,0,0,0.0472875,14.439818,19.587013)" />
    <path
       style="fill:#ff0000;stroke:#000000;stroke-width:0.01132047px;stroke-linecap:butt;stroke-linejoin:miter;stroke-opacity:1"
       d="M 9.7641183,27.595138 C 8.4891265,27.586257 7.216161,27.098474 6.3012592,26.605971 l 1.1254302,1.012718 z"
       id="path180-6"
       inkscape:connector-curvature="0"
       sodipodi:nodetypes="cccc" />
    <path
       style="fill:#ff0000;stroke:#000000;stroke-width:0.01068712px;stroke-linecap:butt;stroke-linejoin:miter;stroke-opacity:1"
       d="M 9.0353664,27.601644 C 10.247021,27.59069 11.456751,27.130688 12.326202,26.666953 L 11.25668,27.618989 Z"
       id="path180-6-6"
       inkscape:connector-curvature="0"
       sodipodi:nodetypes="cccc" />
  </g>
</svg>
